# xmcd
#
# Track frame offsets: 
#        150
#        11461
#        21657
#        29608
#        43011
#        57772
#        69673
#        79293
#        95883
#        108755
#        121610
#        130729
#        139123
#        145939
#        155040
#        164862
#        180219
#        191824
#        206814
#        219241
#        229165
#        244114
#        256824
#        266695
#        278882
#        294739
#        307314
#
# Disc length: 4239 seconds
#
# Revision: 1
# Processed by: cddbd v1.5.2PL0 Copyright (c) Steve Scherf et al.
# Submitted via: ExactAudioCopy v0.99pb4
#
DISCID=9f108d1b
DTITLE=Orion - Who was that masked man? Disc 1
DYEAR=1900
DGENRE=Other
TTITLE0=Moody blue
TTITLE1=Return to sender
TTITLE2=Hurt
TTITLE3=Kentucky rain
TTITLE4=It's now or never
TTITLE5=Burning love
TTITLE6=You don't have to say you love me
TTITLE7=My way
TTITLE8=Love me tender
TTITLE9=Can't help falling in love with you
TTITLE10=Mean woman blues
TTITLE11=Teddy bear
TTITLE12=Hound dog
TTITLE13=That's all right
TTITLE14=Blue moon of Kentucky
TTITLE15=I forgot to remember to forget
TTITLE16=Such a night
TTITLE17=Where he leads me
TTITLE18=Sweet hour of prayer
TTITLE19=I surrender all
TTITLE20=Peace in the valley
TTITLE21=It's no secret
TTITLE22=I believe
TTITLE23=He touched me
TTITLE24=Softly and tenderly
TTITLE25=Where no one stands alone
TTITLE26=Just a closer walk with thee
EXTD=
EXTT0=
EXTT1=
EXTT2=
EXTT3=
EXTT4=
EXTT5=
EXTT6=
EXTT7=
EXTT8=
EXTT9=
EXTT10=
EXTT11=
EXTT12=
EXTT13=
EXTT14=
EXTT15=
EXTT16=
EXTT17=
EXTT18=
EXTT19=
EXTT20=
EXTT21=
EXTT22=
EXTT23=
EXTT24=
EXTT25=
EXTT26=
PLAYORDER=
